<svg xmlns="http://www.w3.org/2000/svg" width="512" height="512" fill="none" viewBox="0 0 512 512"><g clip-path="url(#clip0_102_627)"><rect width="512" height="512" fill="#fff"/><path fill="url(#paint0_linear_102_627)" fill-rule="evenodd" d="M399.899 162.36L408.332 141.636C408.332 141.636 397.6 130.123 384.568 117.075C371.536 104.027 343.939 111.702 343.939 111.702L312.509 76H257.316H202.122L170.692 111.702C170.692 111.702 143.096 104.027 130.064 117.075C117.032 130.123 106.3 141.636 106.3 141.636L114.732 162.36L104 193.061C104 193.061 135.564 312.762 139.263 327.38C146.545 356.163 151.528 367.292 172.225 381.875C192.923 396.459 230.485 421.787 236.618 425.625C242.751 429.463 250.416 436 257.316 436C264.215 436 271.881 429.463 278.013 425.625C284.146 421.787 321.708 396.459 342.406 381.875C363.104 367.292 368.086 356.163 375.369 327.38C379.067 312.762 410.631 193.061 410.631 193.061L399.899 162.36Z" clip-rule="evenodd"/><path fill="#fff" fill-rule="evenodd" d="M335.123 134.344C335.123 134.344 375.549 183.275 375.549 193.733C375.549 204.19 370.464 206.95 365.351 212.387C360.238 217.823 337.907 241.566 335.039 244.615C332.171 247.665 326.201 252.287 329.713 260.608C333.224 268.929 338.405 279.517 332.644 290.257C326.882 300.996 317.013 308.164 310.688 306.979C304.364 305.793 289.512 298.022 284.05 294.472C278.588 290.922 261.277 276.628 261.277 271.158C261.277 265.689 279.171 255.87 282.477 253.638C285.784 251.408 300.862 242.772 301.171 239.383C301.48 235.993 301.362 234.999 296.912 226.623C292.462 218.247 284.448 207.07 285.782 199.634C287.116 192.198 300.041 188.331 309.264 184.843C318.486 181.356 336.244 174.77 338.462 173.746C340.681 172.721 340.107 171.746 333.387 171.108C326.668 170.47 307.598 167.936 299.001 170.335C290.404 172.734 275.716 176.385 274.527 178.321C273.337 180.256 272.287 180.322 273.509 186.999C274.731 193.677 281.021 225.718 281.631 231.41C282.242 237.101 283.437 240.863 277.308 242.266C271.178 243.669 260.861 246.106 257.315 246.106C253.77 246.106 243.452 243.669 237.323 242.266C231.193 240.863 232.388 237.101 232.999 231.41C233.61 225.718 239.9 193.677 241.121 186.999C242.343 180.322 241.293 180.256 240.104 178.321C238.914 176.385 224.226 172.734 215.629 170.335C207.032 167.936 187.963 170.47 181.243 171.108C174.523 171.746 173.95 172.721 176.168 173.746C178.387 174.77 196.145 181.356 205.367 184.843C214.589 188.331 227.515 192.198 228.849 199.634C230.182 207.07 222.168 218.247 217.719 226.623C213.269 234.999 213.151 235.993 213.459 239.383C213.768 242.772 228.847 251.408 232.153 253.638C235.46 255.87 253.353 265.689 253.353 271.158C253.353 276.628 236.043 290.922 230.581 294.472C225.119 298.022 210.267 305.793 203.942 306.979C197.618 308.164 187.748 300.996 181.987 290.257C176.226 279.517 181.407 268.929 184.917 260.608C188.429 252.287 182.46 247.665 179.591 244.615C176.724 241.566 154.392 217.823 149.279 212.387C144.166 206.95 139.081 204.19 139.081 193.733C139.081 183.275 179.508 134.344 179.508 134.344C179.508 134.344 213.62 140.869 218.22 140.869C222.819 140.869 232.785 137.031 241.984 133.961C251.183 130.891 257.315 130.868 257.315 130.868C257.315 130.868 263.448 130.891 272.647 133.961C281.846 137.031 291.811 140.869 296.411 140.869C301.01 140.869 335.123 134.344 335.123 134.344ZM304.817 321.514C307.319 323.082 305.793 326.04 303.514 327.653C301.234 329.266 270.601 353.017 267.628 355.642C264.654 358.268 260.286 362.604 257.315 362.604C254.345 362.604 249.975 358.268 247.003 355.642C244.029 353.017 213.396 329.266 211.117 327.653C208.837 326.04 207.311 323.082 209.813 321.514C212.316 319.945 220.145 315.987 230.949 310.39C241.751 304.793 255.214 300.034 257.315 300.034C259.416 300.034 272.879 304.793 283.683 310.39C294.485 315.987 302.314 319.945 304.817 321.514Z" clip-rule="evenodd"/><mask id="mask0_102_627" style="mask-type:alpha" width="255" height="65" x="130" y="76" maskUnits="userSpaceOnUse"><path fill="#fff" d="M343.939 111.702L312.509 76H257.316H202.122L170.692 111.702C170.692 111.702 143.096 104.027 130.064 117.075C130.064 117.075 166.859 113.749 179.508 134.344C179.508 134.344 213.621 140.868 218.22 140.868C222.82 140.868 232.785 137.031 241.984 133.961C251.183 130.89 257.316 130.868 257.316 130.868C257.316 130.868 263.448 130.89 272.647 133.961C281.846 137.031 291.812 140.868 296.411 140.868C301.011 140.868 335.123 134.344 335.123 134.344C347.772 113.749 384.568 117.075 384.568 117.075C371.536 104.027 343.939 111.702 343.939 111.702Z"/></mask><g mask="url(#mask0_102_627)"><path fill="url(#paint1_linear_102_627)" d="M343.939 111.702L312.509 76H257.316H202.122L170.692 111.702C170.692 111.702 143.096 104.027 130.064 117.075C130.064 117.075 166.859 113.749 179.508 134.344C179.508 134.344 213.621 140.868 218.22 140.868C222.82 140.868 232.785 137.031 241.984 133.961C251.183 130.89 257.316 130.868 257.316 130.868C257.316 130.868 263.448 130.89 272.647 133.961C281.846 137.031 291.812 140.868 296.411 140.868C301.011 140.868 335.123 134.344 335.123 134.344C347.772 113.749 384.568 117.075 384.568 117.075C371.536 104.027 343.939 111.702 343.939 111.702Z"/></g></g><defs><linearGradient id="paint0_linear_102_627" x1="104" x2="410.631" y1="258.54" y2="258.54" gradientUnits="userSpaceOnUse"><stop stop-color="#F50"/><stop offset=".41" stop-color="#F50"/><stop offset=".582" stop-color="#FF2000"/><stop offset="1" stop-color="#FF2000"/></linearGradient><linearGradient id="paint1_linear_102_627" x1="135.532" x2="384.568" y1="108.892" y2="108.892" gradientUnits="userSpaceOnUse"><stop stop-color="#FF452A"/><stop offset="1" stop-color="#FF2000"/></linearGradient><clipPath id="clip0_102_627"><rect width="512" height="512" fill="#fff" rx="24"/></clipPath></defs></svg>