<svg xmlns="http://www.w3.org/2000/svg" width="512" height="512" fill="none" viewBox="0 0 512 512"><g clip-path="url(#clip0_102_629)"><rect width="512" height="512" fill="#fff"/><path fill="#E2761B" stroke="#E2761B" stroke-linecap="round" stroke-linejoin="round" d="M400.063 108L275.2 200.737L298.29 146.024L400.063 108Z"/><path fill="#E4761B" stroke="#E4761B" stroke-linecap="round" stroke-linejoin="round" d="M111.812 108L235.671 201.616L213.71 146.024L111.812 108Z"/><path fill="#E4761B" stroke="#E4761B" stroke-linecap="round" stroke-linejoin="round" d="M355.137 322.965L321.883 373.914L393.036 393.49L413.49 324.094L355.137 322.965Z"/><path fill="#E4761B" stroke="#E4761B" stroke-linecap="round" stroke-linejoin="round" d="M98.6353 324.094L118.965 393.49L190.118 373.914L156.863 322.965L98.6353 324.094Z"/><path fill="#E4761B" stroke="#E4761B" stroke-linecap="round" stroke-linejoin="round" d="M186.102 236.878L166.275 266.871L236.926 270.008L234.416 194.086L186.102 236.878Z"/><path fill="#E4761B" stroke="#E4761B" stroke-linecap="round" stroke-linejoin="round" d="M325.772 236.878L276.831 193.208L275.2 270.008L345.725 266.871L325.772 236.878Z"/><path fill="#E4761B" stroke="#E4761B" stroke-linecap="round" stroke-linejoin="round" d="M190.118 373.914L232.534 353.208L195.89 324.596L190.118 373.914Z"/><path fill="#E4761B" stroke="#E4761B" stroke-linecap="round" stroke-linejoin="round" d="M279.341 353.208L321.882 373.914L315.984 324.596L279.341 353.208Z"/><path fill="#D7C1B3" stroke="#D7C1B3" stroke-linecap="round" stroke-linejoin="round" d="M321.883 373.914L279.342 353.208L282.73 380.941L282.353 392.612L321.883 373.914Z"/><path fill="#D7C1B3" stroke="#D7C1B3" stroke-linecap="round" stroke-linejoin="round" d="M190.118 373.914L229.647 392.612L229.396 380.941L232.533 353.208L190.118 373.914Z"/><path fill="#233447" stroke="#233447" stroke-linecap="round" stroke-linejoin="round" d="M230.274 306.275L194.886 295.859L219.859 284.439L230.274 306.275Z"/><path fill="#233447" stroke="#233447" stroke-linecap="round" stroke-linejoin="round" d="M281.6 306.275L292.016 284.439L317.114 295.859L281.6 306.275Z"/><path fill="#CD6116" stroke="#CD6116" stroke-linecap="round" stroke-linejoin="round" d="M190.118 373.914L196.141 322.965L156.863 324.094L190.118 373.914Z"/><path fill="#CD6116" stroke="#CD6116" stroke-linecap="round" stroke-linejoin="round" d="M315.859 322.965L321.882 373.914L355.137 324.094L315.859 322.965Z"/><path fill="#CD6116" stroke="#CD6116" stroke-linecap="round" stroke-linejoin="round" d="M345.726 266.871L275.2 270.008L281.726 306.275L292.141 284.439L317.239 295.859L345.726 266.871Z"/><path fill="#CD6116" stroke="#CD6116" stroke-linecap="round" stroke-linejoin="round" d="M194.886 295.859L219.984 284.439L230.275 306.275L236.926 270.008L166.275 266.871L194.886 295.859Z"/><path fill="#E4751F" stroke="#E4751F" stroke-linecap="round" stroke-linejoin="round" d="M166.275 266.871L195.89 324.596L194.886 295.859L166.275 266.871Z"/><path fill="#E4751F" stroke="#E4751F" stroke-linecap="round" stroke-linejoin="round" d="M317.239 295.859L315.984 324.596L345.725 266.871L317.239 295.859Z"/><path fill="#E4751F" stroke="#E4751F" stroke-linecap="round" stroke-linejoin="round" d="M236.925 270.008L230.274 306.274L238.557 349.067L240.439 292.722L236.925 270.008Z"/><path fill="#E4751F" stroke="#E4751F" stroke-linecap="round" stroke-linejoin="round" d="M275.2 270.008L271.811 292.596L273.317 349.067L281.725 306.274L275.2 270.008Z"/><path fill="#F6851B" stroke="#F6851B" stroke-linecap="round" stroke-linejoin="round" d="M281.725 306.275L273.318 349.067L279.341 353.208L315.984 324.596L317.239 295.859L281.725 306.275Z"/><path fill="#F6851B" stroke="#F6851B" stroke-linecap="round" stroke-linejoin="round" d="M194.886 295.859L195.89 324.596L232.533 353.208L238.557 349.067L230.274 306.275L194.886 295.859Z"/><path fill="#C0AD9E" stroke="#C0AD9E" stroke-linecap="round" stroke-linejoin="round" d="M282.353 392.612L282.729 380.941L279.592 378.18H232.282L229.396 380.941L229.647 392.612L190.118 373.914L203.922 385.208L231.906 404.659H279.969L308.078 385.208L321.882 373.914L282.353 392.612Z"/><path fill="#161616" stroke="#161616" stroke-linecap="round" stroke-linejoin="round" d="M279.341 353.208L273.317 349.067H238.557L232.533 353.208L229.396 380.941L232.282 378.18H279.592L282.729 380.941L279.341 353.208Z"/><path fill="#763D16" stroke="#763D16" stroke-linecap="round" stroke-linejoin="round" d="M405.333 206.761L416 155.561L400.063 108L279.341 197.6L325.772 236.878L391.404 256.078L405.961 239.137L399.686 234.62L409.725 225.459L401.945 219.435L411.984 211.78L405.333 206.761Z"/><path fill="#763D16" stroke="#763D16" stroke-linecap="round" stroke-linejoin="round" d="M96 155.561L106.667 206.761L99.8902 211.78L109.929 219.435L102.275 225.459L112.314 234.62L106.039 239.137L120.471 256.078L186.102 236.878L232.533 197.6L111.812 108L96 155.561Z"/><path fill="#F6851B" stroke="#F6851B" stroke-linecap="round" stroke-linejoin="round" d="M391.404 256.078L325.773 236.878L345.726 266.871L315.984 324.596L355.137 324.094H413.49L391.404 256.078Z"/><path fill="#F6851B" stroke="#F6851B" stroke-linecap="round" stroke-linejoin="round" d="M186.102 236.878L120.47 256.078L98.635 324.094H156.862L195.89 324.596L166.274 266.871L186.102 236.878Z"/><path fill="#F6851B" stroke="#F6851B" stroke-linecap="round" stroke-linejoin="round" d="M275.2 270.008L279.341 197.6L298.416 146.024H213.71L232.533 197.6L236.925 270.008L238.431 292.847L238.557 349.067H273.318L273.569 292.847L275.2 270.008Z"/></g><defs><clipPath id="clip0_102_629"><rect width="512" height="512" fill="#fff" rx="24"/></clipPath></defs></svg>