<svg width="512" height="512" viewBox="0 0 512 512" fill="none" xmlns="http://www.w3.org/2000/svg">
<g clip-path="url(#clip0_102_628)">
<rect width="512" height="512" rx="24" fill="white"/>
<path d="M255.992 76.008C156.585 76.008 76 156.593 76 256C76 352.529 151.994 431.311 247.419 435.782C250.267 435.916 253.119 435.992 255.994 435.992C302.077 435.992 344.104 418.664 375.948 390.186C354.85 404.179 330.183 412.23 303.821 412.23C260.957 412.23 222.569 390.965 196.75 357.433C176.848 333.939 163.957 299.211 163.079 260.236V251.76C163.956 212.787 176.847 178.052 196.745 154.564C222.567 121.031 260.955 99.7667 303.816 99.7667C330.184 99.7667 354.855 107.818 375.956 121.819C344.268 93.4715 302.495 76.1791 256.668 76.0089C256.44 76.0089 256.216 76 255.988 76L255.992 76.008Z" fill="url(#paint0_linear_102_628)"/>
<path d="M196.748 154.574C213.266 135.075 234.597 123.316 257.903 123.316C310.304 123.316 352.775 182.725 352.775 256.008C352.775 329.291 310.301 388.7 257.903 388.7C234.597 388.7 213.266 376.946 196.752 357.446C222.57 390.979 260.955 412.243 303.823 412.243C330.186 412.243 354.853 404.192 375.95 390.199C412.792 357.24 435.99 309.335 435.99 256.009C435.99 202.69 412.796 154.787 375.963 121.831C354.86 107.83 330.189 99.7791 303.823 99.7791C260.96 99.7791 222.571 121.043 196.753 154.576" fill="url(#paint1_linear_102_628)"/>
</g>
<defs>
<linearGradient id="paint0_linear_102_628" x1="225.982" y1="81.8752" x2="225.982" y2="430.759" gradientUnits="userSpaceOnUse">
<stop stop-color="#FF1B2D"/>
<stop offset="0.3" stop-color="#FF1B2D"/>
<stop offset="0.614" stop-color="#FF1B2D"/>
<stop offset="1" stop-color="#A70014"/>
</linearGradient>
<linearGradient id="paint1_linear_102_628" x1="316.365" y1="102.442" x2="316.365" y2="411.011" gradientUnits="userSpaceOnUse">
<stop stop-color="#9C0000"/>
<stop offset="0.7" stop-color="#FF4B4B"/>
<stop offset="1" stop-color="#FF4B4B"/>
</linearGradient>
<clipPath id="clip0_102_628">
<rect width="512" height="512" fill="white"/>
</clipPath>
</defs>
</svg>
