<svg xmlns="http://www.w3.org/2000/svg" width="512" height="512" fill="none" viewBox="0 0 512 512"><g clip-path="url(#clip0_102_625)"><rect width="512" height="512" fill="#4A21EF" rx="24"/><path fill="#fff" d="M238.336 112.64C234.015 112.64 229.737 113.491 225.745 115.144C221.753 116.797 218.126 119.221 215.071 122.276L118.147 219.202C116.398 220.947 115.011 223.019 114.066 225.301C113.121 227.583 112.637 230.029 112.64 232.499C112.64 237.312 114.476 242.122 118.147 245.793L181.665 309.312V196.861C181.665 188.47 188.414 181.665 196.805 181.665H330.332L399.358 112.64H238.336ZM181.668 330.335H315.141C319.171 330.334 323.036 328.733 325.885 325.883C328.734 323.033 330.335 319.168 330.335 315.138V202.688L393.854 266.207C395.602 267.951 396.988 270.023 397.933 272.304C398.878 274.586 399.363 277.031 399.36 279.501C399.364 281.97 398.879 284.416 397.934 286.697C396.989 288.979 395.602 291.051 393.854 292.795L296.929 389.724C290.758 395.893 282.39 399.359 273.664 399.36H112.643L181.668 330.335Z"/></g><defs><clipPath id="clip0_102_625"><rect width="512" height="512" fill="#fff"/></clipPath></defs></svg>