<svg width="512" height="512" viewBox="0 0 512 512" fill="none" xmlns="http://www.w3.org/2000/svg">
<g clip-path="url(#clip0_102_626)">
<rect width="512" height="512" rx="24" fill="url(#paint0_radial_102_626)"/>
<path d="M160.75 197.725C212.25 147.425 295.85 147.425 347.35 197.725L353.55 203.825C356.15 206.325 356.15 210.425 353.55 212.925L332.35 233.625C331.05 234.925 328.95 234.925 327.65 233.625L319.15 225.325C283.15 190.225 224.95 190.225 188.95 225.325L179.85 234.225C178.55 235.525 176.45 235.525 175.15 234.225L153.95 213.525C151.35 211.025 151.35 206.925 153.95 204.425L160.75 197.725ZM391.25 240.525L410.15 258.925C412.75 261.425 412.75 265.525 410.15 268.025L325.05 351.125C322.45 353.625 318.25 353.625 315.75 351.125L255.35 292.125C254.75 291.525 253.65 291.525 253.05 292.125L192.65 351.125C190.05 353.625 185.85 353.625 183.35 351.125L97.95 268.025C95.35 265.525 95.35 261.425 97.95 258.925L116.85 240.525C119.45 238.025 123.65 238.025 126.15 240.525L186.55 299.525C187.15 300.125 188.25 300.125 188.85 299.525L249.25 240.525C251.85 238.025 256.05 238.025 258.55 240.525L318.95 299.525C319.55 300.125 320.65 300.125 321.25 299.525L381.65 240.525C384.45 238.025 388.65 238.025 391.25 240.525Z" fill="white"/>
</g>
<defs>
<radialGradient id="paint0_radial_102_626" cx="0" cy="0" r="1" gradientUnits="userSpaceOnUse" gradientTransform="translate(0.00158691 256.008) scale(512)">
<stop stop-color="#5D9DF6"/>
<stop offset="1" stop-color="#006FFF"/>
</radialGradient>
<clipPath id="clip0_102_626">
<rect width="512" height="512" fill="white"/>
</clipPath>
</defs>
</svg>
